<?xml version="1.0" encoding="UTF-8"?>
<svg width="512" height="512" viewBox="0 0 512 512" fill="none" xmlns="http://www.w3.org/2000/svg">
  <!-- Leaf shape -->
  <path d="M256 32C132.3 32 32 132.3 32 256s100.3 224 224 224 224-100.3 224-224S379.7 32 256 32zm0 400c-97 0-176-79-176-176s79-176 176-176 176 79 176 176-79 176-176 176z" fill="#22C55E"/>
  <path d="M256 80c-97.2 0-176 78.8-176 176s78.8 176 176 176 176-78.8 176-176S353.2 80 256 80zm0 320c-79.5 0-144-64.5-144-144s64.5-144 144-144 144 64.5 144 144-64.5 144-144 144z" fill="#16A34A"/>
  <path d="M256 128c-70.7 0-128 57.3-128 128s57.3 128 128 128 128-57.3 128-128-57.3-128-128-128zm0 224c-53 0-96-43-96-96s43-96 96-96 96 43 96 96-43 96-96 96z" fill="#22C55E"/>
  
  <!-- B letter -->
  <path d="M200 160h48c17.7 0 32 14.3 32 32v16c0 8.8-7.2 16-16 16s-16-7.2-16-16v-16h-48v96h48v-16c0-8.8 7.2-16 16-16s16 7.2 16 16v16c0 17.7-14.3 32-32 32h-48c-17.7 0-32-14.3-32-32V192c0-17.7 14.3-32 32-32z" fill="white"/>
  <path d="M280 160h32c8.8 0 16 7.2 16 16v144c0 8.8-7.2 16-16 16h-32c-8.8 0-16-7.2-16-16V176c0-8.8 7.2-16 16-16z" fill="white"/>
  
  <!-- Leaf details -->
  <path d="M256 240c8.8 0 16-7.2 16-16s-7.2-16-16-16-16 7.2-16 16 7.2 16 16 16z" fill="#16A34A"/>
</svg>
